<svg xmlns="http://www.w3.org/2000/svg" viewBox="0 0 11.81 16.26"><title>phone</title><g id="Слой_2" data-name="Слой 2"><g id="Layer_1" data-name="Layer 1"><path d="M3.62,1.76,5.3,5.11,4,5.81l2.78,5.57,1.37-.69,1.75,3.43a4.33,4.33,0,0,1-2.08.64A2.31,2.31,0,0,1,6,14C4.73,12.66,1.68,8.5,1.5,4.83c0,0-.1-2.49,2.11-3.07M4.41,0,3.23.31A4.5,4.5,0,0,0,0,4.9c.21,4.33,3.66,8.81,5,10.18a3.81,3.81,0,0,0,2.81,1.19,5.82,5.82,0,0,0,2.9-.88l1.13-.74-.61-1.2L9.45,10,8.77,8.68l-1.33.67h0L6,6.46l0,0,1.31-.68L6.64,4.44,5,1.09,4.41,0Z"/></g></g></svg>